<?xml version="1.0" standalone="no"?>
<!DOCTYPE svg PUBLIC "-//W3C//DTD SVG 20010904//EN"
 "http://www.w3.org/TR/2001/REC-SVG-20010904/DTD/svg10.dtd">
<svg version="1.0" xmlns="http://www.w3.org/2000/svg"
 width="281.000000pt" height="281.000000pt" viewBox="0 0 281.000000 281.000000"
 preserveAspectRatio="xMidYMid meet">
<metadata>
Created by potrace 1.14, written by Peter Selinger 2001-2017
</metadata>
<g transform="translate(0.000000,281.000000) scale(0.100000,-0.100000)"
fill="#000000" stroke="none">
<path d="M648 2805 c-1 -1 -21 -5 -43 -8 -227 -29 -418 -205 -482 -444 -4 -15
-8 -417 -10 -893 -2 -815 -1 -869 16 -941 49 -199 167 -351 344 -441 146 -75
109 -72 907 -74 764 -2 774 -1 898 49 172 69 315 205 376 357 49 120 49 124
52 415 3 243 1 290 -15 360 -62 272 -261 470 -539 536 -57 14 -823 19 -897 6
-89 -15 -175 -79 -218 -162 -85 -168 -35 -346 121 -422 l57 -28 340 -5 c328
-5 341 -6 382 -27 83 -45 113 -111 113 -247 0 -104 -18 -155 -70 -204 -51 -49
-96 -59 -260 -56 -481 8 -767 15 -789 21 -45 11 -97 52 -121 96 l-24 42 -1
618 c0 496 3 628 14 668 18 65 76 130 142 159 52 22 58 22 518 22 l466 0 353
145 c287 119 350 148 341 159 -6 8 -17 14 -24 14 -7 0 -52 18 -101 40 -49 23
-98 45 -109 49 -11 5 -42 19 -70 31 -27 13 -125 56 -217 96 l-168 73 -639 0
c-351 0 -641 -2 -643 -4z m1358 -174 c32 -10 113 -35 179 -55 66 -21 126 -39
133 -41 6 -3 12 -15 12 -29 0 -27 17 -20 -310 -121 l-85 -27 -42 24 c-24 12
-43 25 -43 28 0 3 18 24 40 45 l40 39 -42 44 -43 44 39 34 c22 19 45 34 51 34
6 0 38 -8 71 -19z m-441 -1218 l1 -233 -78 0 -78 0 0 234 0 234 78 -2 77 -1 0
-232z"/>
</g>
</svg>
